# xmcd
#
# Track frame offsets:
#	150
#	10494
#	22324
#	35342
#	48527
#	63354
#	76429
#	89006
#	102391
#	111508
#	122619
#	134231
#	145310
#	159279
#	171231
#	184313
#	197514
#	209346
#	219991
#	232228
#
# Disc length: 3237 seconds
#
# Revision: 0
# Processed by: cddbd v1.5.2PL0 Copyright (c) Steve Scherf et al.
# Submitted via: EasyCDDAExtractor 16.0.6.1
#
DISCID=340ca314
DTITLE=Συλλογικός δίσκος - Τα μποέμικα 1
DYEAR=1900
DGENRE=Λαϊκή
TTITLE0=Ντάλια Ρένα - Μποέμικα να ζήσεις [Π. Γιαννακού]
TTITLE1=Γαβαλάς Πάνος - Έχω μαράζι στην καρδιά [Ι. Γαβαλά-Β. Βασιλειάδη]
TTITLE2=Παπαδοπούλου Πίτσα - Θα κλάψεις, θα πονέσεις [Θ. Δερβενιώτη-Δ. Σουμαλε
TTITLE2=ύρη]
TTITLE3=Τοπάλης Μανώλης - Να ζει κανείς ή να μη ζει [Μ. Μπακάλη-Κ. Νίτσου]
TTITLE4=Μαριανού Μίνα - Θλιμένο όνειρο [Μπ. Μαρκάκη]
TTITLE5=Περπινιάδης Βαγγέλης - Πρόδωσες μιά αγάπη [Β. Περπινιάδη]
TTITLE6=Λύδια Γιώτα - Είσαι για μένα θησαυρός [Χαρ. Πετράκη-Γ. Βασιλόπουλου]
TTITLE7=Αγγελόπουλος Μανώλης - ΤΊποτα δεν θυμάσαι [Στεφ. Βαρτάνη]
TTITLE8=Χρυσάφη Άννα - Εγώ θα πάρω χασαπάκι [Παν. Τούντα]
TTITLE9=Μαρκάκης Μπάμπης - Τώρα που σ' έχω χάσει [Μπ. Μαρκάκη]
TTITLE10=Μιχαλόπουλος Πάνος - Είμαι το παιδί το ένα [Λ. Μπουρνέλη]
TTITLE11=Δημητρίου Φούλη - Όνειρο απατηλό η αγάπη σου [Μπ. Μπαλτόπουλου]
TTITLE12=Βαμβακάρης Μάρκος - Μού είπες χίλια ψέματα [Μ. Βαμβακάρη]
TTITLE13=Χρηστάκης - Έμαθα πως είσαι μάγκας [Χρ. Σύμπου]
TTITLE14=Πάνου Πόλυ - Μ' αφήνεις αναμνήσεις [Πυθαγόρα-Γ. Βασιλειάδη]
TTITLE15=Τσαουσάκης Πρόδρομος - Να πεθάνεις άταχτη [Πρ. Τσαουσάκη]
TTITLE16=Καζαντζίδης Στάθης - Το πικρό μου δάκρυ [Στ. Καζαντζίδη]
TTITLE17=Χατζοπούλου Μαριάννα - Παράτησε το σπίτι σου [Μαρ. Χατζοπούλου]
TTITLE18=Καφάσης Κώστας - Ότα με χάσεις θα με ζητήσεις [Κ. Καφάση]
TTITLE19=Ζαγοραίος Σπύρος - Μάγκικα [Σπ. Ζαγοραίου]
EXTD=
EXTT0=
EXTT1=
EXTT2=
EXTT3=
EXTT4=
EXTT5=
EXTT6=
EXTT7=
EXTT8=
EXTT9=
EXTT10=
EXTT11=
EXTT12=
EXTT13=
EXTT14=
EXTT15=
EXTT16=
EXTT17=
EXTT18=
EXTT19=
PLAYORDER=
